<?xml version="1.0" encoding="utf-8"?>
<!-- Generator: Adobe Illustrator 24.1.0, SVG Export Plug-In . SVG Version: 6.00 Build 0)  -->
<svg version="1.1" id="Layer_1" xmlns="http://www.w3.org/2000/svg" xmlns:xlink="http://www.w3.org/1999/xlink" x="0px" y="0px"
	 viewBox="0 0 80 80" style="enable-background:new 0 0 80 80;" xml:space="preserve">
<style type="text/css">
	.st0{fill:#B2E5F6;}
	.st1{fill:#232F3E;}
	.st2{fill:#FFFFFF;}
</style>
<g>
	<g>
		<g>
			<path class="st0" d="M60.17,29.34h9.92V19c0-0.92-0.74-1.67-1.66-1.67H6.05c-0.92,0-1.66,0.75-1.66,1.67v33.97
				c0,0.92,0.74,1.67,1.66,1.67h48.37V35.09C54.42,31.91,56.99,29.34,60.17,29.34z"/>
		</g>
		<g>
			<path class="st1" d="M5.78,57.05c-1.82,0-3.29-1.5-3.29-3.34v-0.78H52c0.69,0,1.25-0.56,1.25-1.25l0,0
				c0-0.69-0.56-1.25-1.25-1.25H2.49V15.62h63.21v11.31c0,0.69,0.56,1.24,1.24,1.24l0,0c0.69,0,1.24-0.56,1.24-1.24V12.28
				c0-3.17-2.57-5.75-5.72-5.75H5.78C2.59,6.53,0,9.15,0,12.37v41.33c0,3.22,2.59,5.84,5.78,5.84h18.45v7.22h-3.98
				c-0.69,0-1.24,0.56-1.24,1.25s0.56,1.25,1.24,1.25h27.68c0.69,0,1.24-0.56,1.24-1.25s-0.56-1.25-1.24-1.25h-3.98v-7.22H52
				c0.69,0,1.25-0.56,1.25-1.25v0c0-0.69-0.56-1.25-1.25-1.25H5.78z M2.49,12.37c0-1.84,1.48-3.34,3.29-3.34h56.68
				c1.78,0,3.23,1.46,3.23,3.25v0.84H2.49V12.37z M41.47,66.77H26.71v-7.22h14.75V66.77z"/>
		</g>
	</g>
	<g>
		<path class="st0" d="M80,35.87c0-1.5-1.22-2.72-2.72-2.72h-1.09c0,0,0,0,0,0v0c0,0.9-0.73,1.63-1.63,1.63H64.2
			c-0.9,0-1.63-0.73-1.63-1.63v0c0,0,0,0,0,0h-1.09c-1.5,0-2.72,1.22-2.72,2.72v34.87c0,1.5,1.22,2.72,2.72,2.72h15.8
			c1.5,0,2.72-1.22,2.72-2.72V35.87z"/>
		<g>
			<path class="st1" d="M75.14,30.51H59.81c-2.33,0-4.23,1.89-4.23,4.23v33.82c0,2.33,1.89,4.23,4.23,4.23h15.32
				c2.33,0,4.23-1.89,4.23-4.23V34.74C79.37,32.4,77.47,30.51,75.14,30.51z M77.78,68.56c0,1.46-1.19,2.64-2.64,2.64H59.81
				c-1.46,0-2.64-1.19-2.64-2.64V34.74c0-1.46,1.19-2.64,2.64-2.64h1.06c0,0,0,0,0,0c0,0.88,0.71,1.59,1.59,1.59H72.5
				c0.88,0,1.59-0.71,1.59-1.59c0,0,0,0,0,0h1.06c1.46,0,2.64,1.19,2.64,2.64V68.56z"/>
		</g>
	</g>
	<path class="st2" d="M60.83,26.71H7.35c-0.55,0-1-0.45-1-1v-4.66c0-0.55,0.45-1,1-1h53.48c0.55,0,1,0.45,1,1v4.66
		C61.83,26.27,61.38,26.71,60.83,26.71z"/>
	<path class="st2" d="M13.12,48.2H7.35c-0.55,0-1-0.45-1-1V29.93c0-0.55,0.45-1,1-1h5.77c0.55,0,1,0.45,1,1V47.2
		C14.12,47.76,13.67,48.2,13.12,48.2z"/>
	<path class="st1" d="M25.69,48.2h-5.77c-0.55,0-1-0.45-1-1v-6.17c0-0.55,0.45-1,1-1h5.77c0.55,0,1,0.45,1,1v6.17
		C26.69,47.76,26.24,48.2,25.69,48.2z"/>
	<path class="st2" d="M38.25,33.37H19.92c-0.55,0-1-0.45-1-1v-2.44c0-0.55,0.45-1,1-1h18.34c0.55,0,1,0.45,1,1v2.44
		C39.25,32.92,38.81,33.37,38.25,33.37z"/>
	<path class="st2" d="M50.82,33.37h-5.77c-0.55,0-1-0.45-1-1v-2.44c0-0.55,0.45-1,1-1h5.77c0.55,0,1,0.45,1,1v2.44
		C51.82,32.92,51.37,33.37,50.82,33.37z"/>
	<path class="st1" d="M38.25,48.2h-5.77c-0.55,0-1-0.45-1-1v-6.17c0-0.55,0.45-1,1-1h5.77c0.55,0,1,0.45,1,1v6.17
		C39.25,47.76,38.81,48.2,38.25,48.2z"/>
	<path class="st1" d="M50.82,48.2h-5.77c-0.55,0-1-0.45-1-1v-6.17c0-0.55,0.45-1,1-1h5.77c0.55,0,1,0.45,1,1v6.17
		C51.82,47.76,51.37,48.2,50.82,48.2z"/>
	<path class="st1" d="M38.25,37.81H19.92c-0.55,0-1-0.45-1-1v-0.22c0-0.55,0.45-1,1-1h18.34c0.55,0,1,0.45,1,1v0.22
		C39.25,37.36,38.81,37.81,38.25,37.81z"/>
	<path class="st1" d="M72.68,66.33h-10.4c-0.55,0-1-0.45-1-1V54.37c0-0.55,0.45-1,1-1h10.4c0.55,0,1,0.45,1,1v10.95
		C73.68,65.88,73.23,66.33,72.68,66.33z"/>
	<path class="st2" d="M72.68,46.7h-10.4c-0.55,0-1-0.45-1-1v-4.48c0-0.55,0.45-1,1-1h10.4c0.55,0,1,0.45,1,1v4.48
		C73.68,46.26,73.23,46.7,72.68,46.7z"/>
	<path class="st1" d="M72.89,51H62.07c-0.44,0-0.79-0.35-0.79-0.79v-0.35c0-0.44,0.35-0.79,0.79-0.79h10.82
		c0.44,0,0.79,0.35,0.79,0.79v0.35C73.68,50.65,73.33,51,72.89,51z"/>
</g>
</svg>
