<?xml version="1.0" encoding="utf-8"?>
<!-- Generator: Adobe Illustrator 24.0.3, SVG Export Plug-In . SVG Version: 6.00 Build 0)  -->
<svg version="1.1" id="Layer_1" xmlns="http://www.w3.org/2000/svg" xmlns:xlink="http://www.w3.org/1999/xlink" x="0px" y="0px"
	 viewBox="0 0 80 80" style="enable-background:new 0 0 80 80;" xml:space="preserve">
<style type="text/css">
	.st0{fill:#B2E5F6;}
	.st1{fill:#232F3E;}
	.st2{display:none;}
	.st3{display:inline;}
</style>
<g>
	<circle class="st0" cx="26.2" cy="26.77" r="5.83"/>
	<circle class="st0" cx="57.06" cy="42.17" r="5.83"/>
	<ellipse class="st0" cx="41.59" cy="57.58" rx="5.83" ry="5.83"/>
	<g>
		<path class="st1" d="M12.07,25.91h5.45c0.76,3.9,4.54,6.45,8.43,5.7c2.88-0.56,5.14-2.81,5.7-5.7h36.27
			c0.75,0,1.36-0.61,1.36-1.36s-0.61-1.36-1.36-1.36H31.68c-0.76-3.9-4.54-6.45-8.43-5.7c-2.88,0.56-5.14,2.81-5.7,5.7H12.1
			c-0.75,0-1.36,0.61-1.36,1.36s0.61,1.36,1.36,1.36H12.07z M24.61,20.08c2.47,0,4.47,2,4.47,4.47s-2,4.47-4.47,4.47
			s-4.47-2-4.47-4.47C20.14,22.08,22.14,20.08,24.61,20.08z"/>
		<circle class="st1" cx="24.61" cy="24.55" r="2.12"/>
		<path class="st1" d="M12.07,41.31h36.34c0.76,3.9,4.54,6.45,8.43,5.7c2.88-0.56,5.14-2.81,5.7-5.7h5.4c0.75,0,1.36-0.61,1.36-1.36
			s-0.61-1.36-1.36-1.36h-5.4c-0.76-3.9-4.54-6.45-8.43-5.7c-2.88,0.56-5.14,2.81-5.7,5.7H12.07c-0.75,0-1.36,0.61-1.36,1.36
			S11.32,41.31,12.07,41.31z M55.47,35.48c2.47,0,4.47,2,4.47,4.47s-2,4.47-4.47,4.47s-4.47-2-4.47-4.47
			C51.01,37.48,53.01,35.48,55.47,35.48z"/>
		<circle class="st1" cx="55.47" cy="39.95" r="2.12"/>
		<path class="st1" d="M12.07,56.72h20.9c0.76,3.9,4.54,6.45,8.43,5.7c2.88-0.56,5.14-2.81,5.7-5.7H68c0.75,0,1.36-0.61,1.36-1.36
			S68.75,54,68,54H47.1c-0.76-3.9-4.54-6.45-8.43-5.7c-2.88,0.56-5.14,2.81-5.7,5.7h-20.9c-0.75,0-1.36,0.61-1.36,1.36
			C10.71,56.11,11.32,56.72,12.07,56.72z M39.98,50.88c2.47,0,4.47,2,4.47,4.47s-2,4.47-4.47,4.47s-4.47-2-4.47-4.47
			S37.5,50.88,39.98,50.88z"/>
		<circle class="st1" cx="40" cy="55.36" r="2.12"/>
		<path class="st1" d="M78.64,6.12H1.36C0.61,6.12,0,6.73,0,7.48v65.03c0,0.75,0.61,1.36,1.36,1.36h77.28
			c0.75,0,1.36-0.61,1.36-1.36V7.48C80,6.73,79.39,6.12,78.64,6.12z M77.27,71.16H2.73V8.85h74.55L77.27,71.16L77.27,71.16z"/>
	</g>
</g>
<g id="Pound" class="st2">
	<g class="st3">
		<g>
			<g>
				<defs>
					<path id="SVGID_1_" d="M441.72,345.37h0.68c4.01-0.01,18.46-0.15,18.49,0.75c0.3,0.07,0.59,0.24,0.81,0.49
						c0.59,0.66,0.54,1.68-0.12,2.27c-3.66,3.3-5.83,7.42-6.52,12.42c-0.09,0.68-0.59,1.19-1.22,1.34
						c-0.09,0.06-0.18,0.12-0.28,0.16c-3.63,1.63-7.5,2.45-11.5,2.45s-7.87-0.82-11.5-2.45c-0.04-0.02-0.08-0.06-0.13-0.13
						c-0.71-0.09-1.29-0.64-1.39-1.37c-0.69-5-2.86-9.11-6.52-12.42c-0.66-0.59-0.71-1.61-0.12-2.27c0.49-0.55,1.27-0.68,1.9-0.37
						C425.18,345.2,437.91,345.36,441.72,345.37z"/>
				</defs>
				<clipPath id="SVGID_2_">
					<use xlink:href="#SVGID_1_"  style="overflow:visible;"/>
				</clipPath>
			</g>
		</g>
		<g>
			<g>
				<defs>
					<ellipse id="SVGID_3_" cx="442.24" cy="331.44" rx="26.65" ry="26.76"/>
				</defs>
				<clipPath id="SVGID_4_">
					<use xlink:href="#SVGID_3_"  style="overflow:visible;"/>
				</clipPath>
			</g>
		</g>
		<g>
			<g>
				<defs>
					<path id="SVGID_5_" d="M439.36,356.74c-15.58,0-28.25-12.73-28.25-28.37c0-15.64,12.67-28.37,28.25-28.37
						s28.25,12.73,28.25,28.37C467.61,344.01,454.93,356.74,439.36,356.74z M439.36,303.21c-13.81,0-25.05,11.29-25.05,25.16
						s11.24,25.16,25.05,25.16s25.05-11.29,25.05-25.16C464.41,314.5,453.17,303.21,439.36,303.21z"/>
				</defs>
				<clipPath id="SVGID_6_">
					<use xlink:href="#SVGID_5_"  style="overflow:visible;"/>
				</clipPath>
			</g>
		</g>
		<g>
			<g>
				<defs>
					<path id="SVGID_7_" d="M439.36,365.22c-4,0-7.87-0.82-11.5-2.45c-0.81-0.36-1.17-1.31-0.81-2.12c0.36-0.81,1.3-1.17,2.11-0.81
						c3.21,1.44,6.64,2.17,10.19,2.17s6.98-0.73,10.19-2.17c0.81-0.36,1.75,0,2.11,0.81s0,1.76-0.81,2.12
						C447.23,364.4,443.36,365.22,439.36,365.22"/>
				</defs>
				<clipPath id="SVGID_8_">
					<use xlink:href="#SVGID_7_"  style="overflow:visible;"/>
				</clipPath>
			</g>
		</g>
		<g>
			<g>
				<defs>
					<path id="SVGID_9_" d="M439.36,372.61c-3.43,0-6.74-0.82-9.85-2.45c-0.69-0.36-1-1.31-0.69-2.12s1.12-1.18,1.81-0.81
						c2.75,1.44,5.69,2.17,8.73,2.17s5.98-0.73,8.73-2.17c0.69-0.36,1.5,0,1.81,0.81s0,1.76-0.69,2.12
						C446.1,371.79,442.78,372.61,439.36,372.61"/>
				</defs>
				<clipPath id="SVGID_10_">
					<use xlink:href="#SVGID_9_"  style="overflow:visible;"/>
				</clipPath>
			</g>
		</g>
		<g>
			<g>
				<defs>
					<path id="SVGID_11_" d="M439.36,380c-2.38,0-4.75-0.3-7.06-0.9c-0.86-0.22-1.37-1.1-1.15-1.96s1.09-1.37,1.95-1.15
						c4.1,1.06,8.43,1.06,12.53,0c0.85-0.22,1.73,0.3,1.95,1.15c0.22,0.86-0.29,1.73-1.15,1.96C444.11,379.7,441.73,380,439.36,380"
						/>
				</defs>
				<clipPath id="SVGID_12_">
					<use xlink:href="#SVGID_11_"  style="overflow:visible;"/>
				</clipPath>
			</g>
		</g>
		<g>
			<g>
				<defs>
					<path id="SVGID_13_" d="M429.39,360.89c-0.84-5.79-3.5-10.65-7.95-14.49c-0.69-0.6-1.76-0.54-2.38,0.12
						c-0.62,0.67-0.56,1.69,0.13,2.29c3.85,3.33,6.13,7.49,6.86,12.53c0.13,0.89,0.98,1.5,1.9,1.38
						C428.88,362.59,429.52,361.78,429.39,360.89z"/>
				</defs>
				<clipPath id="SVGID_14_">
					<use xlink:href="#SVGID_13_"  style="overflow:visible;"/>
				</clipPath>
			</g>
		</g>
		<g>
			<g>
				<defs>
					<path id="SVGID_15_" d="M448.57,360.89c0.84-5.79,3.5-10.65,7.95-14.49c0.69-0.6,1.76-0.54,2.38,0.12
						c0.62,0.67,0.56,1.69-0.13,2.29c-3.85,3.33-6.13,7.49-6.86,12.53c-0.13,0.89-0.98,1.5-1.9,1.38
						C449.08,362.59,448.44,361.78,448.57,360.89z"/>
				</defs>
				<clipPath id="SVGID_16_">
					<use xlink:href="#SVGID_15_"  style="overflow:visible;"/>
				</clipPath>
			</g>
		</g>
	</g>
</g>
<g id="Yen" class="st2">
	<g class="st3">
		<g>
			<g>
				<defs>
					<path id="SVGID_17_" d="M441.72,345.37h0.68c4.01-0.01,18.46-0.15,18.49,0.75c0.3,0.07,0.59,0.24,0.81,0.49
						c0.59,0.66,0.54,1.68-0.12,2.27c-3.66,3.3-5.83,7.42-6.52,12.42c-0.09,0.68-0.59,1.19-1.22,1.34
						c-0.09,0.06-0.18,0.12-0.28,0.16c-3.63,1.63-7.5,2.45-11.5,2.45s-7.87-0.82-11.5-2.45c-0.04-0.02-0.08-0.06-0.13-0.13
						c-0.71-0.09-1.29-0.64-1.39-1.37c-0.69-5-2.86-9.11-6.52-12.42c-0.66-0.59-0.71-1.61-0.12-2.27c0.49-0.55,1.27-0.68,1.9-0.37
						C425.18,345.2,437.91,345.36,441.72,345.37z"/>
				</defs>
				<clipPath id="SVGID_18_">
					<use xlink:href="#SVGID_17_"  style="overflow:visible;"/>
				</clipPath>
			</g>
		</g>
		<g>
			<g>
				<defs>
					<ellipse id="SVGID_19_" cx="442.24" cy="331.44" rx="26.65" ry="26.76"/>
				</defs>
				<clipPath id="SVGID_20_">
					<use xlink:href="#SVGID_19_"  style="overflow:visible;"/>
				</clipPath>
			</g>
		</g>
		<g>
			<g>
				<defs>
					<path id="SVGID_21_" d="M439.36,356.74c-15.58,0-28.25-12.73-28.25-28.37c0-15.64,12.67-28.37,28.25-28.37
						s28.25,12.73,28.25,28.37C467.61,344.01,454.93,356.74,439.36,356.74z M439.36,303.21c-13.81,0-25.05,11.29-25.05,25.16
						s11.24,25.16,25.05,25.16s25.05-11.29,25.05-25.16C464.41,314.5,453.17,303.21,439.36,303.21z"/>
				</defs>
				<clipPath id="SVGID_22_">
					<use xlink:href="#SVGID_21_"  style="overflow:visible;"/>
				</clipPath>
			</g>
		</g>
		<g>
			<g>
				<defs>
					<path id="SVGID_23_" d="M439.36,365.22c-4,0-7.87-0.82-11.5-2.45c-0.81-0.36-1.17-1.31-0.81-2.12c0.36-0.81,1.3-1.17,2.11-0.81
						c3.21,1.44,6.64,2.17,10.19,2.17s6.98-0.73,10.19-2.17c0.81-0.36,1.75,0,2.11,0.81s0,1.76-0.81,2.12
						C447.23,364.4,443.36,365.22,439.36,365.22"/>
				</defs>
				<clipPath id="SVGID_24_">
					<use xlink:href="#SVGID_23_"  style="overflow:visible;"/>
				</clipPath>
			</g>
		</g>
		<g>
			<g>
				<defs>
					<path id="SVGID_25_" d="M439.36,372.61c-3.43,0-6.74-0.82-9.85-2.45c-0.69-0.36-1-1.31-0.69-2.12s1.12-1.18,1.81-0.81
						c2.75,1.44,5.69,2.17,8.73,2.17s5.98-0.73,8.73-2.17c0.69-0.36,1.5,0,1.81,0.81s0,1.76-0.69,2.12
						C446.1,371.79,442.78,372.61,439.36,372.61"/>
				</defs>
				<clipPath id="SVGID_26_">
					<use xlink:href="#SVGID_25_"  style="overflow:visible;"/>
				</clipPath>
			</g>
		</g>
		<g>
			<g>
				<defs>
					<path id="SVGID_27_" d="M439.36,380c-2.38,0-4.75-0.3-7.06-0.9c-0.86-0.22-1.37-1.1-1.15-1.96s1.09-1.37,1.95-1.15
						c4.1,1.06,8.43,1.06,12.53,0c0.85-0.22,1.73,0.3,1.95,1.15c0.22,0.86-0.29,1.73-1.15,1.96C444.11,379.7,441.73,380,439.36,380"
						/>
				</defs>
				<clipPath id="SVGID_28_">
					<use xlink:href="#SVGID_27_"  style="overflow:visible;"/>
				</clipPath>
			</g>
		</g>
		<g>
			<g>
				<defs>
					<path id="SVGID_29_" d="M429.39,360.89c-0.84-5.79-3.5-10.65-7.95-14.49c-0.69-0.6-1.76-0.54-2.38,0.12
						c-0.62,0.67-0.56,1.69,0.13,2.29c3.85,3.33,6.13,7.49,6.86,12.53c0.13,0.89,0.98,1.5,1.9,1.38
						C428.88,362.59,429.52,361.78,429.39,360.89z"/>
				</defs>
				<clipPath id="SVGID_30_">
					<use xlink:href="#SVGID_29_"  style="overflow:visible;"/>
				</clipPath>
			</g>
		</g>
		<g>
			<g>
				<defs>
					<path id="SVGID_31_" d="M448.57,360.89c0.84-5.79,3.5-10.65,7.95-14.49c0.69-0.6,1.76-0.54,2.38,0.12
						c0.62,0.67,0.56,1.69-0.13,2.29c-3.85,3.33-6.13,7.49-6.86,12.53c-0.13,0.89-0.98,1.5-1.9,1.38
						C449.08,362.59,448.44,361.78,448.57,360.89z"/>
				</defs>
				<clipPath id="SVGID_32_">
					<use xlink:href="#SVGID_31_"  style="overflow:visible;"/>
				</clipPath>
			</g>
		</g>
	</g>
</g>
<g id="Euro" class="st2">
	<g class="st3">
		<g>
			<g>
				<defs>
					<path id="SVGID_33_" d="M441.72,345.37h0.68c4.01-0.01,18.46-0.15,18.49,0.75c0.3,0.07,0.59,0.24,0.81,0.49
						c0.59,0.66,0.54,1.68-0.12,2.27c-3.66,3.3-5.83,7.42-6.52,12.42c-0.09,0.68-0.59,1.19-1.22,1.34
						c-0.09,0.06-0.18,0.12-0.28,0.16c-3.63,1.63-7.5,2.45-11.5,2.45s-7.87-0.82-11.5-2.45c-0.04-0.02-0.08-0.06-0.13-0.13
						c-0.71-0.09-1.29-0.64-1.39-1.37c-0.69-5-2.86-9.11-6.52-12.42c-0.66-0.59-0.71-1.61-0.12-2.27c0.49-0.55,1.27-0.68,1.9-0.37
						C425.18,345.2,437.91,345.36,441.72,345.37z"/>
				</defs>
				<clipPath id="SVGID_34_">
					<use xlink:href="#SVGID_33_"  style="overflow:visible;"/>
				</clipPath>
			</g>
		</g>
		<g>
			<g>
				<defs>
					<ellipse id="SVGID_35_" cx="442.24" cy="331.44" rx="26.65" ry="26.76"/>
				</defs>
				<clipPath id="SVGID_36_">
					<use xlink:href="#SVGID_35_"  style="overflow:visible;"/>
				</clipPath>
			</g>
		</g>
		<g>
			<g>
				<defs>
					<path id="SVGID_37_" d="M439.36,356.74c-15.58,0-28.25-12.73-28.25-28.37c0-15.64,12.67-28.37,28.25-28.37
						s28.25,12.73,28.25,28.37C467.61,344.01,454.93,356.74,439.36,356.74z M439.36,303.21c-13.81,0-25.05,11.29-25.05,25.16
						s11.24,25.16,25.05,25.16s25.05-11.29,25.05-25.16C464.41,314.5,453.17,303.21,439.36,303.21z"/>
				</defs>
				<clipPath id="SVGID_38_">
					<use xlink:href="#SVGID_37_"  style="overflow:visible;"/>
				</clipPath>
			</g>
		</g>
		<g>
			<g>
				<defs>
					<path id="SVGID_39_" d="M439.36,365.22c-4,0-7.87-0.82-11.5-2.45c-0.81-0.36-1.17-1.31-0.81-2.12c0.36-0.81,1.3-1.17,2.11-0.81
						c3.21,1.44,6.64,2.17,10.19,2.17s6.98-0.73,10.19-2.17c0.81-0.36,1.75,0,2.11,0.81s0,1.76-0.81,2.12
						C447.23,364.4,443.36,365.22,439.36,365.22"/>
				</defs>
				<clipPath id="SVGID_40_">
					<use xlink:href="#SVGID_39_"  style="overflow:visible;"/>
				</clipPath>
			</g>
		</g>
		<g>
			<g>
				<defs>
					<path id="SVGID_41_" d="M439.36,372.61c-3.43,0-6.74-0.82-9.85-2.45c-0.69-0.36-1-1.31-0.69-2.12s1.12-1.18,1.81-0.81
						c2.75,1.44,5.69,2.17,8.73,2.17s5.98-0.73,8.73-2.17c0.69-0.36,1.5,0,1.81,0.81s0,1.76-0.69,2.12
						C446.1,371.79,442.78,372.61,439.36,372.61"/>
				</defs>
				<clipPath id="SVGID_42_">
					<use xlink:href="#SVGID_41_"  style="overflow:visible;"/>
				</clipPath>
			</g>
		</g>
		<g>
			<g>
				<defs>
					<path id="SVGID_43_" d="M439.36,380c-2.38,0-4.75-0.3-7.06-0.9c-0.86-0.22-1.37-1.1-1.15-1.96s1.09-1.37,1.95-1.15
						c4.1,1.06,8.43,1.06,12.53,0c0.85-0.22,1.73,0.3,1.95,1.15c0.22,0.86-0.29,1.73-1.15,1.96C444.11,379.7,441.73,380,439.36,380"
						/>
				</defs>
				<clipPath id="SVGID_44_">
					<use xlink:href="#SVGID_43_"  style="overflow:visible;"/>
				</clipPath>
			</g>
		</g>
		<g>
			<g>
				<defs>
					<path id="SVGID_45_" d="M429.39,360.89c-0.84-5.79-3.5-10.65-7.95-14.49c-0.69-0.6-1.76-0.54-2.38,0.12
						c-0.62,0.67-0.56,1.69,0.13,2.29c3.85,3.33,6.13,7.49,6.86,12.53c0.13,0.89,0.98,1.5,1.9,1.38
						C428.88,362.59,429.52,361.78,429.39,360.89z"/>
				</defs>
				<clipPath id="SVGID_46_">
					<use xlink:href="#SVGID_45_"  style="overflow:visible;"/>
				</clipPath>
			</g>
		</g>
		<g>
			<g>
				<defs>
					<path id="SVGID_47_" d="M448.57,360.89c0.84-5.79,3.5-10.65,7.95-14.49c0.69-0.6,1.76-0.54,2.38,0.12
						c0.62,0.67,0.56,1.69-0.13,2.29c-3.85,3.33-6.13,7.49-6.86,12.53c-0.13,0.89-0.98,1.5-1.9,1.38
						C449.08,362.59,448.44,361.78,448.57,360.89z"/>
				</defs>
				<clipPath id="SVGID_48_">
					<use xlink:href="#SVGID_47_"  style="overflow:visible;"/>
				</clipPath>
			</g>
		</g>
	</g>
</g>
<g id="Rupee" class="st2">
	<g class="st3">
		<g>
			<g>
				<defs>
					<path id="SVGID_49_" d="M441.72,345.37h0.68c4.01-0.01,18.46-0.15,18.49,0.75c0.3,0.07,0.59,0.24,0.81,0.49
						c0.59,0.66,0.54,1.68-0.12,2.27c-3.66,3.3-5.83,7.42-6.52,12.42c-0.09,0.68-0.59,1.19-1.22,1.34
						c-0.09,0.06-0.18,0.12-0.28,0.16c-3.63,1.63-7.5,2.45-11.5,2.45s-7.87-0.82-11.5-2.45c-0.04-0.02-0.08-0.06-0.13-0.13
						c-0.71-0.09-1.29-0.64-1.39-1.37c-0.69-5-2.86-9.11-6.52-12.42c-0.66-0.59-0.71-1.61-0.12-2.27c0.49-0.55,1.27-0.68,1.9-0.37
						C425.18,345.2,437.91,345.36,441.72,345.37z"/>
				</defs>
				<clipPath id="SVGID_50_">
					<use xlink:href="#SVGID_49_"  style="overflow:visible;"/>
				</clipPath>
			</g>
		</g>
		<g>
			<g>
				<defs>
					<ellipse id="SVGID_51_" cx="442.24" cy="331.44" rx="26.65" ry="26.76"/>
				</defs>
				<clipPath id="SVGID_52_">
					<use xlink:href="#SVGID_51_"  style="overflow:visible;"/>
				</clipPath>
			</g>
		</g>
		<g>
			<g>
				<defs>
					<path id="SVGID_53_" d="M439.36,356.74c-15.58,0-28.25-12.73-28.25-28.37c0-15.64,12.67-28.37,28.25-28.37
						s28.25,12.73,28.25,28.37C467.61,344.01,454.93,356.74,439.36,356.74z M439.36,303.21c-13.81,0-25.05,11.29-25.05,25.16
						s11.24,25.16,25.05,25.16s25.05-11.29,25.05-25.16C464.41,314.5,453.17,303.21,439.36,303.21z"/>
				</defs>
				<clipPath id="SVGID_54_">
					<use xlink:href="#SVGID_53_"  style="overflow:visible;"/>
				</clipPath>
			</g>
		</g>
		<g>
			<g>
				<defs>
					<path id="SVGID_55_" d="M439.36,365.22c-4,0-7.87-0.82-11.5-2.45c-0.81-0.36-1.17-1.31-0.81-2.12c0.36-0.81,1.3-1.17,2.11-0.81
						c3.21,1.44,6.64,2.17,10.19,2.17s6.98-0.73,10.19-2.17c0.81-0.36,1.75,0,2.11,0.81s0,1.76-0.81,2.12
						C447.23,364.4,443.36,365.22,439.36,365.22"/>
				</defs>
				<clipPath id="SVGID_56_">
					<use xlink:href="#SVGID_55_"  style="overflow:visible;"/>
				</clipPath>
			</g>
		</g>
		<g>
			<g>
				<defs>
					<path id="SVGID_57_" d="M439.36,372.61c-3.43,0-6.74-0.82-9.85-2.45c-0.69-0.36-1-1.31-0.69-2.12s1.12-1.18,1.81-0.81
						c2.75,1.44,5.69,2.17,8.73,2.17s5.98-0.73,8.73-2.17c0.69-0.36,1.5,0,1.81,0.81s0,1.76-0.69,2.12
						C446.1,371.79,442.78,372.61,439.36,372.61"/>
				</defs>
				<clipPath id="SVGID_58_">
					<use xlink:href="#SVGID_57_"  style="overflow:visible;"/>
				</clipPath>
			</g>
		</g>
		<g>
			<g>
				<defs>
					<path id="SVGID_59_" d="M439.36,380c-2.38,0-4.75-0.3-7.06-0.9c-0.86-0.22-1.37-1.1-1.15-1.96s1.09-1.37,1.95-1.15
						c4.1,1.06,8.43,1.06,12.53,0c0.85-0.22,1.73,0.3,1.95,1.15c0.22,0.86-0.29,1.73-1.15,1.96C444.11,379.7,441.73,380,439.36,380"
						/>
				</defs>
				<clipPath id="SVGID_60_">
					<use xlink:href="#SVGID_59_"  style="overflow:visible;"/>
				</clipPath>
			</g>
		</g>
		<g>
			<g>
				<defs>
					<path id="SVGID_61_" d="M429.39,360.89c-0.84-5.79-3.5-10.65-7.95-14.49c-0.69-0.6-1.76-0.54-2.38,0.12
						c-0.62,0.67-0.56,1.69,0.13,2.29c3.85,3.33,6.13,7.49,6.86,12.53c0.13,0.89,0.98,1.5,1.9,1.38
						C428.88,362.59,429.52,361.78,429.39,360.89z"/>
				</defs>
				<clipPath id="SVGID_62_">
					<use xlink:href="#SVGID_61_"  style="overflow:visible;"/>
				</clipPath>
			</g>
		</g>
		<g>
			<g>
				<defs>
					<path id="SVGID_63_" d="M448.57,360.89c0.84-5.79,3.5-10.65,7.95-14.49c0.69-0.6,1.76-0.54,2.38,0.12
						c0.62,0.67,0.56,1.69-0.13,2.29c-3.85,3.33-6.13,7.49-6.86,12.53c-0.13,0.89-0.98,1.5-1.9,1.38
						C449.08,362.59,448.44,361.78,448.57,360.89z"/>
				</defs>
				<clipPath id="SVGID_64_">
					<use xlink:href="#SVGID_63_"  style="overflow:visible;"/>
				</clipPath>
			</g>
		</g>
	</g>
</g>
</svg>
